<?xml version="1.0" standalone="no"?>
<!DOCTYPE svg PUBLIC "-//W3C//DTD SVG 20010904//EN"
 "http://www.w3.org/TR/2001/REC-SVG-20010904/DTD/svg10.dtd">
<svg version="1.0" xmlns="http://www.w3.org/2000/svg"
 width="512.000000pt" height="512.000000pt" viewBox="0 0 512.000000 512.000000"
 preserveAspectRatio="xMidYMid meet">
<metadata>
Created by potrace 1.11, written by Peter Selinger 2001-2013
</metadata>
<g transform="translate(0.000000,512.000000) scale(0.100000,-0.100000)"
fill="#000000" stroke="none">
<path d="M2463 5102 c-109 -39 -178 -112 -210 -221 -30 -105 4 -227 88 -308
23 -24 47 -43 51 -43 4 0 8 -67 8 -148 l0 -149 -82 -12 c-258 -39 -524 -146
-733 -296 -49 -36 -92 -65 -95 -65 -3 0 -49 44 -103 98 l-98 99 -2 89 c-2 70
-7 99 -25 136 -71 144 -232 211 -389 162 -82 -25 -172 -115 -197 -197 -49
-156 19 -318 162 -389 37 -18 66 -23 136 -25 l89 -2 99 -98 c54 -54 98 -100
98 -103 0 -3 -29 -45 -65 -95 -70 -98 -168 -280 -208 -390 -37 -98 -72 -234
-87 -337 l-13 -88 -146 0 -146 1 -25 34 c-56 78 -179 132 -277 122 -268 -28
-386 -353 -198 -542 48 -47 129 -85 198 -92 98 -10 221 44 277 122 l25 34 146
1 146 0 12 -82 c39 -258 146 -524 296 -733 36 -49 65 -92 65 -95 0 -3 -44 -49
-98 -103 l-99 -98 -89 -2 c-104 -2 -163 -26 -225 -89 -64 -66 -84 -119 -84
-223 0 -75 4 -98 24 -135 32 -61 86 -116 146 -148 43 -23 62 -27 140 -27 104
0 157 20 223 84 63 62 87 121 89 225 l2 89 98 99 c54 54 100 98 103 98 3 0 46
-29 95 -65 209 -150 475 -257 733 -296 l82 -12 0 -149 c0 -81 -4 -148 -8 -148
-20 0 -97 -90 -121 -140 -54 -114 -27 -264 64 -355 122 -121 328 -121 450 0
47 48 85 129 92 198 10 98 -46 227 -122 278 l-35 24 0 146 0 146 83 12 c257
39 523 146 732 296 50 36 92 65 95 65 3 0 49 -44 103 -98 l98 -99 2 -89 c2
-104 26 -163 89 -225 66 -64 119 -84 223 -84 78 0 97 4 140 27 60 32 114 87
146 148 20 37 24 60 24 135 0 104 -20 157 -84 223 -62 63 -121 87 -225 89
l-89 2 -99 98 c-54 54 -98 100 -98 103 0 3 29 46 65 95 150 209 257 475 296
733 l12 82 149 0 c81 0 148 -4 148 -8 0 -20 90 -97 140 -121 114 -54 264 -27
355 64 121 122 121 328 0 450 -91 91 -241 118 -355 64 -51 -24 -140 -100 -140
-120 0 -5 -67 -9 -148 -9 l-149 0 -12 83 c-39 257 -146 523 -296 732 -36 50
-65 92 -65 95 0 3 44 49 98 103 l99 98 89 2 c104 2 158 24 223 88 66 66 86
119 86 224 0 75 -4 98 -24 135 -32 61 -86 117 -146 148 -43 23 -62 27 -140 27
-104 0 -157 -20 -223 -84 -63 -62 -87 -121 -89 -225 l-2 -89 -98 -99 c-54 -54
-100 -98 -103 -98 -3 0 -45 29 -95 65 -209 150 -475 257 -732 296 l-83 12 0
149 c0 81 4 148 9 148 20 0 96 89 120 140 54 114 27 264 -64 355 -82 81 -219
114 -322 77z m-63 -1242 c0 -67 20 -111 66 -146 31 -24 47 -29 94 -29 46 0 63
5 92 27 46 35 68 83 68 147 0 28 4 51 9 51 29 0 177 -34 246 -56 345 -111 639
-363 803 -690 55 -110 132 -362 132 -434 0 -4 -29 -10 -65 -12 -105 -7 -160
-61 -160 -158 0 -97 55 -151 160 -158 40 -3 65 -9 65 -16 0 -6 -9 -51 -19
-101 -100 -468 -429 -846 -876 -1005 -78 -27 -247 -69 -281 -70 -7 0 -13 25
-16 64 -3 51 -10 71 -32 101 -68 89 -190 85 -260 -8 -14 -19 -21 -48 -24 -93
l-4 -65 -42 6 c-478 73 -884 400 -1065 857 -28 73 -64 204 -76 286 l-7 42 52
0 c65 0 113 22 148 68 22 29 27 46 27 92 0 99 -67 160 -176 160 l-51 0 7 43
c85 557 513 1010 1065 1127 125 27 120 28 120 -30z"/>
<path d="M3200 3267 c-49 -16 -133 -102 -148 -153 -28 -94 -8 -169 63 -239 51
-52 102 -75 165 -75 124 0 240 116 240 240 0 63 -23 114 -75 165 -70 71 -152
91 -245 62z"/>
<path d="M1960 3191 c-86 -28 -141 -75 -181 -151 -35 -66 -33 -176 3 -245 53
-101 134 -150 248 -150 114 0 195 49 248 150 22 41 26 63 26 125 0 116 -50
198 -154 250 -48 24 -147 35 -190 21z"/>
<path d="M2644 2311 c-49 -12 -134 -63 -160 -94 -14 -17 -37 -53 -52 -81 -22
-43 -26 -64 -26 -136 -1 -78 2 -90 33 -148 38 -70 70 -100 145 -140 43 -22 64
-26 136 -26 73 0 92 4 137 27 66 34 116 84 150 150 23 45 27 64 27 137 0 72
-4 93 -26 136 -39 75 -70 107 -137 143 -65 34 -164 49 -227 32z"/>
</g>
</svg>
